General                          : ChattChitto RG - MOvies [R2L]
===========
Complete name                    : Blue Steel 1989 720p BRRip H264 [ChattChitto RG
Format                           : MPEG-4
Format profile                   : Base Media
Codec ID                         : isom
File size                        : 1.96 GiB
Duration                         : 1h 41mn
Overall bit rate                 : 2 760 Kbps
Encoded date                     : UTC 2011-04-08 06:13:00


Video
==========
ID                               : 1
Format                           : AVC
Format/Info                      : Advanced Video Codec
Format profile                   : High@L4.1
Format settings, CABAC           : Yes
Format settings, ReFrames        : 4 frames
Codec ID                         : avc1
Codec ID/Info                    : Advanced Video Coding
Duration                         : 1h 41mn
Bit rate mode                    : Variable
Bit rate                         : 2 400 Kbps
Maximum bit rate                 : 19.3 Mbps
Width                            : 1 280 pixels
Height                           : 688 pixels
Display aspect ratio             : 1.860
Frame rate mode                  : Constant
Frame rate                       : 23.976 fps
Color space                      : YUV
Chroma subsampling               : 4:2:0
Bit depth                        : 8 bits
Scan type                        : Progressive
Bits/(Pixel*Frame)               : 0.114
Stream size                      : 1.71 GiB (87%)
Encoded date                     : UTC 2011-04-07 01:20:21

Audio
==========
ID                               : 2
Format                           : AAC
Format/Info                      : Advanced Audio Codec
Format profile                   : LC
Codec ID                         : 40
Duration                         : 1h 41mn
Bit rate mode                    : Variable
Bit rate                         : 352.8 Kbps
Maximum bit rate                 : 428 Kbps
Channel(s)                       : 6 channels
Channel positions                : Front: L C R, Side: L R, LFE
Sampling rate                    : 48.0 KHz
Compression mode                 : Lossy
Stream size                      : 260 MiB (13%)
Encoded date                     : UTC 2011-04-08 06:13:32

Subtitles                        : French | Spanish


----------------------------------------------------
IMDB Link: http://www.imdb.com/title/tt0099160/
----------------------------------------------------



Screen Shots:
==============    
http://chattchitto.net/chattchittorg/movies/brrip/2011/blue_steel/1.png 
http://chattchitto.net/chattchittorg/movies/brrip/2011/blue_steel/2.png 
http://chattchitto.net/chattchittorg/movies/brrip/2011/blue_steel/3.png 
http://chattchitto.net/chattchittorg/movies/brrip/2011/blue_steel/4.png 
http://chattchitto.net/chattchittorg/movies/brrip/2011/blue_steel/5.png 
http://chattchitto.net/chattchittorg/movies/brrip/2011/blue_steel/6.png 
http://chattchitto.net/chattchittorg/movies/brrip/2011/blue_steel/7.png



ScreenShots Comparison:
=========================  
http://screenshotcomparison.com/comparison/42069



Plot:
======
A female rookie in the police force engages in a cat and mouse game with a pistol wielding psychopath who becomes obsessed with her.



Release Info:
==============
original name .... : Blue Steel 1989 720p BRRip H264 [ChattChitto RG]
ripper.............: CiNEFiLE
encoder............: Recalled2Life (R2L)
video codec........: H264/.MP4
video bitrate......: 2400
audio codec........: AAC-LC
aspect ratio.......: 1.860
resolution.........: 1280 x 688
genre..............: Action | Thriller | Crime
runtime............: 1h 41mn
language...........: English
rating.............: R
subtitles..........: French | Spanish
sample.............: Yes
2ch Audio..........: 2ch Audio for XBox Viewers
Compatibility .....: XBox | PS3 | WD Live



Source:
========
Blue.Steel.1989.1080p.BluRay.x264-CiNEFiLE  THANKS!!



Notes:
=======
ChattChitto RG Encourages Burning this Film with ConvertXtoDVD and Playing with VLC media player.
XBox 360 | PS3 | WD Live - Compatible 
Enhanced for your viewing pleasure ;)